<?xml version="1.0" encoding="UTF-8"?>
<svg id="Layer_1" data-name="Layer 1" xmlns="http://www.w3.org/2000/svg" viewBox="0 0 607.36 448.49">
  <defs>
    <style>
      .cls-1 {
        fill: #e56e35;
      }

      .cls-2 {
        stroke-width: 4.71px;
      }

      .cls-2, .cls-3, .cls-4 {
        stroke-miterlimit: 10;
      }

      .cls-2, .cls-4 {
        fill: none;
        stroke: #3e1c05;
        stroke-linecap: round;
      }

      .cls-5 {
        fill: #3e1c05;
      }

      .cls-6 {
        fill: #982214;
      }

      .cls-7 {
        fill: #d51308;
      }

      .cls-8 {
        fill: #3e1c05;
      }

      .cls-3 {
        fill: #e7a13b;
        stroke: #3e1c05;
        stroke-width: 1.93px;
      }

      .cls-4 {
        stroke-width: 3.92px;
      }

      .cls-9 {
        fill: #ffd194;
      }

      .cls-10 {
        fill: #3e8006;
      }

      .cls-11 {
        fill: #7c370a;
      }
    </style>
  </defs>
  <g>
    <g>
      <path class="cls-10" d="M309.58,89.28c6.03,31.44,20.6,124,21.71,131.08.03.21-76.55-15.78-154.78-28.38-77.16-12.43-158.92-18.51-158.92-18.51,0,0-.38-.25-.27-.44,3.5-6.59,48.55-91.42,64.66-120.04C101.18,18.87,130.07,7.34,159.03,3.63c25.41-3.25,65.56,2.73,89.02,13.09,27.53,12.16,53.81,32.33,61.53,72.56Z"/>
      <g>
        <path class="cls-11" d="M4.86,240c-23.27,9.71,42.36,57.14,84,38.83,33.21-14.6,63.49-64.01,60.07-86.9-4.4-29.5-63.78-56.78-86.63-12.13-17.7,34.59-42.44,53.94-57.45,60.2Z"/>
        <path class="cls-11" d="M327.55,291.45c19.1,16.47-58.03,41.13-91.91,10.78-27.02-24.21-40.44-80.58-30.07-101.27,13.36-26.67,78.28-34.13,86.1,15.4,6.06,38.38,23.56,64.46,35.88,75.08Z"/>
      </g>
      <path class="cls-9" d="M292.73,167.88c-11.25,70.59-69.66,119.97-130.44,110.28-60.79-9.69-100.94-74.78-89.68-145.37,11.25-70.59,64.25-86.04,125.03-76.34,60.79,9.69,106.35,40.84,95.09,111.44Z"/>
      <path class="cls-2" d="M142.59,224.18s19.9,30.03,58.88,9.39"/>
      <path class="cls-7" d="M183.43,237.9c-.05-5.03,15.94-21.6,17.54-5.35"/>
      <path class="cls-11" d="M32.08,125.24c-27,9.1,57.51,22.56,104.61,2.27,47.09-20.29,70.71-52.28,65.93-75.74-6.16-30.25-79.27-47.02-104.61-2.27-19.63,34.67-48.52,69.87-65.93,75.74Z"/>
      <path class="cls-11" d="M333.6,173.31c22.84,17.05-61.68,3.56-100.13-30.37-38.45-33.93-50.95-71.67-39.11-92.49,15.26-26.84,89.96-20.04,100.13,30.37,7.87,39.06,24.38,81.49,39.11,92.49Z"/>
      <g>
        <ellipse class="cls-8" cx="137.25" cy="166.81" rx="17.21" ry="16.79" transform="translate(-49.09 276.09) rotate(-80.94)"/>
        <path class="cls-2" d="M207.12,184.37s17.67-26.08,32.24,5.14"/>
      </g>
    </g>
    <g>
      <g>
        <ellipse class="cls-6" cx="527.45" cy="68.73" rx="32.18" ry="20.93" transform="translate(81.95 359.34) rotate(-40.54)"/>
        <ellipse class="cls-6" cx="402.27" cy="92.02" rx="20.93" ry="32.18" transform="translate(181.5 440.66) rotate(-70.54)"/>
        <g>
          <ellipse class="cls-6" cx="458.96" cy="45" rx="29.54" ry="45.43" transform="translate(-.49 84.73) rotate(-10.54)"/>
          <ellipse class="cls-6" cx="498.98" cy="52.58" rx="39.34" ry="25.58" transform="translate(283.18 505.54) rotate(-70.54)"/>
          <ellipse class="cls-6" cx="423.93" cy="66.55" rx="25.58" ry="39.34" transform="translate(58.52 291.53) rotate(-40.54)"/>
        </g>
      </g>
      <path class="cls-1" d="M391.08,149.2l-13.28,55.9c-15.56,65.52,41.42,125.38,107.63,113.06l45.77-8.52c66.2-12.32,97.84-88.67,59.75-144.21l-32.5-47.38c-48.43-81.36-151.37-61.71-167.38,31.15Z"/>
      <path class="cls-3" d="M472.09,228.21c-3.36,3.94-10.18,12.08-9.23,17.17,2.07,11.12,37.31,25.6,37.31,25.6,0,0,28.58-27.05,26.44-38.54-.88-4.73-11.07-9.81-15.3-12.1-12.64-6.83-29.89-3.06-39.22,7.86Z"/>
      <g>
        <ellipse class="cls-5" cx="523.78" cy="173.07" rx="15" ry="17.5" transform="translate(-22.82 98.75) rotate(-10.54)"/>
        <path class="cls-4" d="M456.27,189.35s-15.27-21.32-26.71,4.97"/>
      </g>
    </g>
  </g>
  <g>
    <path class="cls-7" d="M190.98,374.01l-6.96,8.59v9.99c0,2.02,2.93,2.11,2.93,2.11.82,0,1.25.67,1.3,1.3,0,.67-.43,1.3-1.3,1.3h-13.01c-.86,0-1.34-.62-1.39-1.3-.05-.62.38-1.3,1.39-1.25,0,0,2.5-.19,2.5-2.11v-9.99l-11.33-19.49c-1.25-2.16-2.69-1.63-2.69-1.63-.96,0-1.49-.72-1.54-1.39,0-.62.38-1.2,1.39-1.2h11.23c.67,0,1.15.67,1.2,1.34,0,.58-.38,1.15-1.34,1.15,0,0-1.39-.24-.19,1.78l8.98,14.83,4.32-5.09c2.3-2.69,3.5-5.33,3.6-7.3.05-1.92-.58-3.46-1.82-3.7-.67-.1-1.01.14-1.25.48-.24.43-.29.96-.58,1.06-.48.1-2.54-.72-2.78-2.74-.34-2.69,2.11-6.05,5.76-6.14,4.03-.1,7.34,2.88,7.44,6.96.1,3.65-1.92,7.63-5.86,12.43Z"/>
    <path class="cls-7" d="M205.67,398.01c-6.91,0-12.24-5.81-12.24-13.44s5.42-13.39,12.24-13.39,12.43,5.95,12.43,13.39-5.57,13.44-12.43,13.44ZM205.67,375.74c-3.5,0-4.32,4.18-4.32,9.36,0,4.71,1.06,8.74,4.42,8.74,3.55,0,4.61-4.08,4.61-9.07s-1.01-9.02-4.71-9.02Z"/>
    <path class="cls-7" d="M249.21,395.95c0,.67-.48,1.34-1.34,1.34l-7.83.05c-1.34,0-1.39-1.49-1.49-2.35-1.15,1.25-3.22,2.78-6.53,2.78-4.42,0-9.41-1.63-9.41-7.44v-13.73c0-2.06-1.92-2.16-1.92-2.16-.82,0-1.2-.62-1.2-1.3,0-.62.38-1.25,1.2-1.25l9.55-.05v16.99c0,2.45,1.49,4.22,4.27,4.22,1.49,0,2.98-.67,4.08-1.63v-14.83c0-1.97-1.97-2.11-1.97-2.11-.86,0-1.15-.67-1.15-1.34,0-.62.43-1.25,1.1-1.25h9.6v20.83c0,2.02,1.73,2.02,1.73,2.02.91,0,1.3.58,1.3,1.2Z"/>
    <path class="cls-7" d="M271.14,383.04c-2.45,0-3.7-2.02-3.7-3.02s.43-2.11,1.25-2.54c.1-.05.1-.1.1-.19,0-.48-1.39-1.63-3.41-1.63-.96,0-2.06.29-3.22.96l-.1.05-.05,15.94c0,2.02,1.97,2.11,1.97,2.11.82,0,1.15.67,1.15,1.34,0,.62-.43,1.25-1.15,1.25h-11.47c-.67,0-1.1-.58-1.1-1.25s.34-1.3,1.1-1.3c0,0,1.92-.19,1.92-2.11v-16.18c0-1.97-1.73-1.97-1.73-1.97-.96,0-1.34-.72-1.34-1.34,0-.67.58-1.25,1.34-1.25l9.36-.05v1.2c1.39-.86,3.22-1.58,5.42-1.58,6.19,0,8.02,3.46,8.02,6.14,0,3.02-1.63,5.42-4.37,5.42Z"/>
    <path class="cls-7" d="M286.79,397.87c-4.75,0-9.75-2.26-9.75-7.34,0-2.45,1.73-4.32,4.03-4.32s3.36,1.49,3.36,3.41-1.54,2.45-1.54,2.45c.14,1.54,2.3,1.97,3.89,1.97,2.16,0,4.46-1.06,4.46-3.46,0-6.05-12.53-3.55-12.53-12.91,0-4.7,4.85-6.43,8.88-6.43,1.15,0,2.35.14,3.5.48-.1-.1-.1-.24-.1-.38,0-.72,1.2-.72,1.68-.72.72,0,1.68,0,1.97.82l1.97,5.66c.05.19.1.34.1.48,0,.86-1.25,1.3-2.26,1.3s-1.82-.91-1.97-1.49c-.96-1.06-2.69-2.35-4.94-2.35-1.39,0-2.59.91-2.59,2.45,0,4.37,13.3,2.54,13.3,11.76,0,5.62-6.77,8.64-11.47,8.64Z"/>
    <path class="cls-7" d="M328.45,395.28c-2.02,1.63-3.98,2.74-7.01,2.74-2.11,0-6-1.25-6-5.62v-16.23h-1.01c-1.34,0-2.06-.86-2.06-1.87,0-.91.62-1.92,2.06-2.45,3.46-1.25,4.9-4.46,4.9-7.44,0-.96.86-1.39,1.73-1.39.96,0,1.92.53,1.92,1.39v7.44h3.74c1.49,0,2.16,1.01,2.16,2.06s-.77,2.26-2.16,2.26h-3.74v16.37c0,1.25,1.2,1.97,1.82,1.97,1.25-.14,2.35-1.15,2.35-1.15l1.3,1.92Z"/>
    <path class="cls-7" d="M350.48,383.04c-2.45,0-3.7-2.02-3.7-3.02s.43-2.11,1.25-2.54c.1-.05.1-.1.1-.19,0-.48-1.39-1.63-3.41-1.63-.96,0-2.06.29-3.22.96l-.1.05-.05,15.94c0,2.02,1.97,2.11,1.97,2.11.82,0,1.15.67,1.15,1.34,0,.62-.43,1.25-1.15,1.25h-11.47c-.67,0-1.1-.58-1.1-1.25s.34-1.3,1.1-1.3c0,0,1.92-.19,1.92-2.11v-16.18c0-1.97-1.73-1.97-1.73-1.97-.96,0-1.34-.72-1.34-1.34,0-.67.58-1.25,1.34-1.25l9.36-.05v1.2c1.39-.86,3.22-1.58,5.42-1.58,6.19,0,8.02,3.46,8.02,6.14,0,3.02-1.63,5.42-4.37,5.42Z"/>
    <path class="cls-7" d="M385.91,395.95c0,.67-.48,1.34-1.34,1.34l-7.83.05c-1.34,0-1.39-1.49-1.49-2.35-1.15,1.25-3.22,2.78-6.53,2.78-4.42,0-9.41-1.63-9.41-7.44v-13.73c0-2.06-1.92-2.16-1.92-2.16-.82,0-1.2-.62-1.2-1.3,0-.62.38-1.25,1.2-1.25l9.55-.05v16.99c0,2.45,1.49,4.22,4.27,4.22,1.49,0,2.98-.67,4.08-1.63v-14.83c0-1.97-1.97-2.11-1.97-2.11-.86,0-1.15-.67-1.15-1.34,0-.62.43-1.25,1.1-1.25h9.6v20.83c0,2.02,1.73,2.02,1.73,2.02.91,0,1.3.58,1.3,1.2Z"/>
    <path class="cls-7" d="M401.46,397.29h-11.52c-.67,0-1.1-.67-1.1-1.34,0-.62.38-1.2,1.1-1.2,0,0,1.97-.19,1.97-2.11v-26.64c0-1.97-1.73-1.97-1.73-1.97-.96-.05-1.34-.62-1.34-1.25,0-.67.48-1.34,1.34-1.34l9.31-.05v31.2c0,2.02,1.97,2.11,1.97,2.11.82,0,1.15.72,1.15,1.39-.05.62-.48,1.2-1.15,1.2Z"/>
    <path class="cls-7" d="M433.81,374.44s-1.68-.43-2.69,1.97l-8.5,20.74c-1.06,2.64-2.3,5.47-4.08,7.73-2.11,2.74-4.94,4.66-9.02,4.32-2.98-.24-5.62-1.73-6.1-4.99-.58-3.55,1.78-5.23,4.32-5.23s3.12,2.69,2.69,3.17c-.34.38-.62-.29-1.2.34-.24.29-.38.91,0,1.63.24.43,1.01,1.01,2.02,1.01,2.93,0,5.52-5.47,4.56-7.87l-8.35-20.83c-1.01-2.45-2.69-1.97-2.69-1.97-1.01,0-1.44-.72-1.34-1.39.05-.62.53-1.2,1.34-1.2h11.47c1.01,0,1.39.58,1.39,1.2-.05.67-.58,1.39-1.39,1.39,0,0-1.34.19-.48,2.16l5.33,12.82,5.38-12.82c.82-1.97-.53-2.16-.53-2.16-.82,0-1.34-.77-1.34-1.44,0-.58.38-1.15,1.34-1.15h7.87c.82,0,1.3.62,1.34,1.3,0,.62-.38,1.3-1.34,1.3Z"/>
    <path class="cls-7" d="M446.77,392.49c.58.58.82,1.3.82,2.06,0,1.87-1.39,4.08-2.35,5.14-1.73,1.87-5.47,2.93-5.47,2.93l-.58-1.68s4.08-2.64,2.93-3.79l-3.75-3.75c-.24-.24-.24-.67,0-.91l3.75-3.74c.24-.24.67-.24.96,0l3.7,3.74Z"/>
    <path class="cls-10" d="M88.62,447.29v-1c3.2-.2,3.88-.44,3.88-3.48v-16.92c0-3.64-2.16-5.04-4.56-5.04s-4.6.92-6.64,2.36v19.6c0,3.04.68,3.28,3.88,3.48v1h-11.72v-1c3.2-.2,3.88-.44,3.88-3.48v-18.96c0-2.12-.64-2.76-3.2-2.76h-2.84c-5.8,0-9.32,2.88-9.32,7.52,0,3.24,2.24,5.64,4.8,5.64,1.4,0,2.2-.52,2.2-1.48,0-.8-.8-1.44-.8-2.6,0-1.52,1.04-2.44,2.36-2.44,1.64,0,2.52,1.4,2.52,2.96,0,3.24-2.56,5.4-6,5.4-4.16,0-7.08-3.04-7.08-7.48,0-5.12,4.08-9.32,11.32-9.32h10v1.88c1.84-1.2,4.76-2.48,7.36-2.48,2,0,5.16.6,6.76,3.2,2.12-1.64,5.64-3.2,8.4-3.2s7.84,1.12,7.84,7.32v16.8c0,3.04.68,3.28,3.88,3.48v1h-11.72v-1c3.2-.2,3.88-.44,3.88-3.48v-16.92c0-3.64-2.16-5.04-4.6-5.04s-4.88,1-7,2.56c.32.96.36,1.92.36,2.6v16.8c0,3.04.68,3.28,3.88,3.48v1h-11.72Z"/>
    <path class="cls-10" d="M123.54,447.81c-3.32,0-5.4-1.48-5.4-4.28,0-4.32,5.12-5.8,11.96-6.92v-2.4c0-2.92-.64-4.04-2.88-4.04s-3.68.96-4.16,2.92c-.36,1.36-1.12,1.92-2,1.92-1,0-1.56-.6-1.56-1.8,0-2.28,3.04-4.56,7.92-4.56,3.4,0,6.24,1.24,6.24,5.64v9.4c0,1.48.4,2.16,1.28,2.16.4,0,.88-.12,1.48-.44v1.44c-.84.56-1.8.88-3.12.88-1.6,0-2.8-.76-3.12-2.48-1.84,1.28-4.2,2.56-6.64,2.56ZM130.1,438.13c-4.88.72-8.12,1.84-8.12,4.92,0,1.88,1.2,2.72,2.84,2.72,1.8,0,3.56-.88,5.28-2.08v-5.56Z"/>
    <path class="cls-10" d="M150.38,447.29v-1c2.2-.2,2.68-.64,2.68-2.08v-10.16c0-2.36-1.24-3.36-3.12-3.36s-3.64.64-5.2,1.72v11.8c0,1.44.52,1.88,2.68,2.08v1h-8.92v-1c2.2-.2,2.72-.64,2.72-2.08v-10.32c0-.96-.36-1.32-1.24-1.32h-1.48v-.8l5-3.12h1.24v2c1.56-.96,4-2,6.2-2,1.68,0,3.92.48,5,2.4,1.76-1.24,4.6-2.4,6.84-2.4,2.4,0,5.68.92,5.68,5.4v10.16c0,1.44.52,1.88,2.72,2.08v1h-8.92v-1c2.16-.2,2.68-.64,2.68-2.08v-10.16c0-2.36-1.24-3.36-3.12-3.36s-3.76.68-5.4,1.8c.12.48.2,1,.2,1.56v10.16c0,1.44.52,1.88,2.68,2.08v1h-8.92Z"/>
    <path class="cls-10" d="M185.14,447.29v-1c2.2-.2,2.68-.64,2.68-2.08v-10.16c0-2.36-1.24-3.36-3.12-3.36s-3.64.64-5.2,1.72v11.8c0,1.44.52,1.88,2.68,2.08v1h-8.92v-1c2.2-.2,2.72-.64,2.72-2.08v-10.32c0-.96-.36-1.32-1.24-1.32h-1.48v-.8l5-3.12h1.24v2c1.56-.96,4-2,6.2-2,1.68,0,3.92.48,5,2.4,1.76-1.24,4.6-2.4,6.84-2.4,2.4,0,5.68.92,5.68,5.4v10.16c0,1.44.52,1.88,2.72,2.08v1h-8.92v-1c2.16-.2,2.68-.64,2.68-2.08v-10.16c0-2.36-1.24-3.36-3.12-3.36s-3.76.68-5.4,1.8c.12.48.2,1,.2,1.56v10.16c0,1.44.52,1.88,2.68,2.08v1h-8.92Z"/>
    <path class="cls-10" d="M213.78,447.81c-3.32,0-5.4-1.48-5.4-4.28,0-4.32,5.12-5.8,11.96-6.92v-2.4c0-2.92-.64-4.04-2.88-4.04s-3.68.96-4.16,2.92c-.36,1.36-1.12,1.92-2,1.92-1,0-1.56-.6-1.56-1.8,0-2.28,3.04-4.56,7.92-4.56,3.4,0,6.24,1.24,6.24,5.64v9.4c0,1.48.4,2.16,1.28,2.16.4,0,.88-.12,1.48-.44v1.44c-.84.56-1.8.88-3.12.88-1.6,0-2.8-.76-3.12-2.48-1.84,1.28-4.2,2.56-6.64,2.56ZM220.34,438.13c-4.88.72-8.12,1.84-8.12,4.92,0,1.88,1.2,2.72,2.84,2.72,1.8,0,3.56-.88,5.28-2.08v-5.56Z"/>
    <path class="cls-10" d="M274.74,443.89c.96,1.32,2,2.2,4.64,2.4v1h-6.84l-9.72-13.76h-3.76v9.28c0,3.04.68,3.28,3.88,3.48v1h-11.72v-1c3.2-.2,3.88-.44,3.88-3.48v-18.96c0-2.12-.64-2.76-3.2-2.76h-2.84c-5.8,0-9.32,2.88-9.32,7.52,0,3.24,2.24,5.64,4.8,5.64,1.4,0,2.2-.52,2.2-1.48,0-.8-.8-1.4-.8-2.6,0-1.52,1.04-2.44,2.36-2.44,1.64,0,2.52,1.4,2.52,2.96,0,3.24-2.56,5.4-6,5.4-4.16,0-7.08-3.04-7.08-7.48,0-5.12,4.08-9.32,11.32-9.32h16.04c6.64,0,11.32,1.92,11.32,7.12,0,4.6-3.88,6.68-9.16,7l7.48,10.48ZM260.26,421.1c-.76,0-1.2.44-1.2,1.2v9.48h6c4.48,0,6.96-1.68,6.96-5.36s-2.48-5.32-6.92-5.32h-4.84Z"/>
    <path class="cls-10" d="M279.94,447.29v-1c2.2-.2,2.72-.64,2.72-2.08v-10.32c0-.96-.36-1.32-1.24-1.32h-1.48v-.8l5-3.12h1.24v15.56c0,1.44.52,1.88,2.68,2.08v1h-8.92ZM286.86,422.22c0,1.2-.96,2.24-2.36,2.24s-2.36-1.04-2.36-2.24.92-2.28,2.36-2.28,2.36,1.04,2.36,2.28Z"/>
    <path class="cls-10" d="M301.66,446.97c-.92.44-2.36.76-3.64.76-2.68,0-4.68-1.04-4.68-4.68v-12.16h-2.68v-.84c3.12-1.12,4.36-3.28,4.96-6.72h1.24v5.92h4.8v1.64h-4.8v12.2c0,1.92.68,2.8,2.32,2.8.84,0,1.64-.16,2.48-.48v1.56Z"/>
    <path class="cls-10" d="M309.5,447.81c-3.32,0-5.4-1.48-5.4-4.28,0-4.32,5.12-5.8,11.96-6.92v-2.4c0-2.92-.64-4.04-2.88-4.04s-3.68.96-4.16,2.92c-.36,1.36-1.12,1.92-2,1.92-1,0-1.56-.6-1.56-1.8,0-2.28,3.04-4.56,7.92-4.56,3.4,0,6.24,1.24,6.24,5.64v9.4c0,1.48.4,2.16,1.28,2.16.4,0,.88-.12,1.48-.44v1.44c-.84.56-1.8.88-3.12.88-1.6,0-2.8-.76-3.12-2.48-1.84,1.28-4.2,2.56-6.64,2.56ZM316.06,438.13c-4.88.72-8.12,1.84-8.12,4.92,0,1.88,1.2,2.72,2.84,2.72,1.8,0,3.56-.88,5.28-2.08v-5.56Z"/>
    <path class="cls-10" d="M362.18,429.7c-2.56.2-3.6.8-3.92,3.6-.36,3.28-1.6,6.32-3.48,8.76,1.2,2.92,2.16,3.96,4.08,3.96,1.4,0,2.48-.28,3.32-.6v1.44c-1.04.64-3.04,1-4.6,1-2.6,0-4.36-.8-5.68-2.88-2.4,1.84-5.32,2.92-8.56,2.92-5.44,0-8.56-3.32-8.56-7.28,0-5.16,4-7.8,7.88-10-2.32-2-3.44-3.76-3.44-6.16s1.84-5.76,6.56-5.76c3.84,0,5.96,2.48,5.96,5.32s-2.28,4.6-4.88,6.24c2.72,2.04,4.88,4.52,7.24,10.08,1.4-2.16,2.24-4.76,2.24-7.32s-1.16-3.12-3.72-3.32v-1.04h9.56v1.04ZM351.14,443.53c-.04-.08-.04-.12-.08-.16-2.76-6.6-4.36-9.28-6.84-11.44-2.68,1.8-5.04,3.92-5.04,7.64,0,3.16,1.96,6.04,5.8,6.04,2.32,0,4.4-.8,6.16-2.08ZM345.3,429.13c2.52-1.44,4.52-2.92,4.52-5.12,0-2.04-1.32-3.64-3.84-3.64-2.28,0-3.96,1.44-3.96,3.88,0,2.04,1.12,3.28,3.28,4.88Z"/>
    <path class="cls-10" d="M379.58,433.29c0,7.48,2.8,12.84,9.2,12.84,4.36,0,8.36-2.4,9.64-6.6l1.8.6c-1.8,4.88-5.56,7.76-11.68,7.76-7.84,0-13.36-6.16-13.36-14.6s5.52-14.6,13.76-14.6c7.2,0,10.88,4.68,10.88,9.32s-3.36,8.36-7.68,8.36c-3.96,0-7.12-2.76-7.12-6.64,0-1.84.96-3.44,2.8-3.44,1.32,0,2.44.88,2.44,2.2,0,1.72-1.56,1.88-1.56,3.24,0,1.24,1.12,2.84,3.56,2.84,2.76,0,5.52-2.16,5.52-6.56,0-4.76-4.08-7.6-8.52-7.6-6.76,0-9.68,5.4-9.68,12.88Z"/>
    <path class="cls-10" d="M414.34,447.29v-1c2.2-.2,2.68-.64,2.68-2.08v-10.16c0-2.36-1.24-3.36-3.12-3.36s-3.64.64-5.2,1.72v11.8c0,1.44.52,1.88,2.68,2.08v1h-8.92v-1c2.2-.2,2.72-.64,2.72-2.08v-20.28c0-.96-.36-1.32-1.24-1.32h-1.48v-.8l5-3.12h1.24v11.96c1.56-.96,4-2,6.2-2,2.36,0,5.68.92,5.68,5.4v10.16c0,1.44.52,1.88,2.68,2.08v1h-8.92Z"/>
    <path class="cls-10" d="M425.34,447.29v-1c2.2-.2,2.72-.64,2.72-2.08v-10.32c0-.96-.36-1.32-1.24-1.32h-1.48v-.8l5-3.12h1.24v15.56c0,1.44.52,1.88,2.68,2.08v1h-8.92ZM432.26,422.22c0,1.2-.96,2.24-2.36,2.24s-2.36-1.04-2.36-2.24.92-2.28,2.36-2.28,2.36,1.04,2.36,2.28Z"/>
    <path class="cls-10" d="M448.94,433.09c-.28-1.72-1.24-2.88-3.32-2.88-3.76,0-5.04,3.4-5.04,8.04s1.88,7.96,5.88,7.96c2.84,0,4.56-1.8,5.8-4.68l1.44.76c-1.36,3.32-3.64,5.6-7.6,5.6-5.96,0-9.36-4.16-9.36-9.64s3.72-9.6,8.88-9.6c4.24,0,7.08,2.32,7.08,4.52,0,1.2-.84,1.84-1.84,1.84-.88,0-1.64-.56-1.92-1.92Z"/>
    <path class="cls-10" d="M456.02,437.09h8.92v2.36h-8.92v-2.36Z"/>
    <path class="cls-10" d="M499.53,442.81c0,3.04.68,3.28,3.88,3.48v1h-11.72v-1c3.2-.2,3.88-.44,3.88-3.48v-5.6h-11.56l-1.8,4.36c-2.08,4.96-4.84,6.92-9.08,6.92s-6.8-1.96-6.8-4c0-1.28.92-2.24,2.2-2.24,2.96,0,2.12,4.16,5.48,4.16,2.08,0,4.6-1,6.52-5.44l2.08-5c3.68-8.84,7.16-16.76,15.44-16.76.48,0,.96.04,1.48.08v23.52ZM495.57,435.41v-13.92c-5.04.96-7.96,7.04-10.8,13.92h10.8Z"/>
    <path class="cls-10" d="M515.78,421.82l4.96-3.12h1.24v25.52c0,1.44.52,1.88,2.72,2.08v1c-2.04,0-4.2.2-6.24.6v-2.08c-1.2,1.32-2.96,2.08-5.32,2.08-5.32,0-8.32-4.2-8.32-9.64s3-9.6,8.32-9.6c2.36,0,4.12.76,5.32,2.08v-6.8c0-.96-.36-1.32-1.28-1.32h-1.4v-.8ZM518.46,432.57c-1-1.36-2.48-2.2-4.44-2.2-4,0-5.36,3.24-5.36,7.88s1.36,7.92,5.36,7.92c1.96,0,3.44-.84,4.44-2.2v-11.4Z"/>
    <path class="cls-10" d="M545.97,438.25c0,5.48-3.8,9.64-9.44,9.64s-9.4-4.16-9.4-9.64,3.76-9.6,9.4-9.6,9.44,4.16,9.44,9.6ZM542.14,438.25c0-4.64-1.56-8.04-5.6-8.04s-5.56,3.4-5.56,8.04,1.52,8.08,5.56,8.08,5.6-3.44,5.6-8.08Z"/>
  </g>
</svg>