<?xml version="1.0" encoding="UTF-8"?>
<svg id="Layer_3" data-name="Layer 3" xmlns="http://www.w3.org/2000/svg" viewBox="0 0 1224 792">
  <defs>
    <style>
      .cls-1 {
        fill: #fff2e1;
      }

      .cls-2 {
        fill: #d51308;
      }

      .cls-3 {
        fill: none;
        stroke: #e7a13b;
        stroke-linecap: round;
        stroke-miterlimit: 10;
        stroke-width: 21.89px;
      }

      .cls-4 {
        fill: #3e8006;
      }
    </style>
  </defs>
  <rect class="cls-1" x="177.74" y="72" width="868.52" height="648" rx="78.37" ry="78.37"/>
  <g>
    <g>
      <path class="cls-3" d="M773.4,448.36c0-84.09-71.33-152.26-159.32-152.26s-159.32,68.17-159.32,152.26"/>
      <circle class="cls-2" cx="581.39" cy="360.7" r="35.3"/>
      <circle class="cls-2" cx="706.15" cy="425.63" r="35.3"/>
      <circle class="cls-2" cx="665.43" cy="359.62" r="25.05"/>
      <circle class="cls-2" cx="598.13" cy="448.36" r="25.05"/>
      <circle class="cls-2" cx="516.33" cy="417.05" r="25.05"/>
      <path class="cls-4" d="M299.46,393.33c-2.25-.4-3.92,1.99-2.62,3.78,7.49,10.26,25.79,25,42.76,18.04,17.91-7.35,30.45-7.51,52.54.07,24.99,8.57,34.97-8.59,39.77-17.1,1.08-1.91-.76-4.12-2.97-3.54-5.38,1.41-15.15,4.01-27.95-3.28-31.07-17.69-53.76-10-74.51.83-10.38,5.42-21.01,2.28-27.02,1.21Z"/>
      <path class="cls-4" d="M728.56,300.45c-1.54,1.06-1.07,3.47.75,3.79,10.5,1.82,29.94.08,35.58-13.93,5.96-14.78,13.13-22.14,30.46-30.38,19.61-9.33,15.09-25.4,12.76-33.29-.52-1.77-2.91-2.03-3.84-.41-2.27,3.96-6.37,11.18-18.15,14.21-28.61,7.37-37.13,25.12-42.64,43.64-2.76,9.26-10.79,13.53-14.92,16.37Z"/>
      <path class="cls-4" d="M498.78,300.45c1.54,1.06,1.07,3.47-.75,3.79-10.5,1.82-29.94.08-35.58-13.93-5.96-14.78-13.13-22.14-30.46-30.38-19.61-9.33-15.09-25.4-12.76-33.29.52-1.77,2.91-2.03,3.84-.41,2.27,3.96,6.37,11.18,18.15,14.21,28.61,7.37,37.13,25.12,42.64,43.64,2.76,9.26,10.79,13.53,14.92,16.37Z"/>
      <path class="cls-4" d="M803.11,393.33c-2.25-.4-3.92,1.99-2.62,3.78,7.49,10.26,25.79,25,42.76,18.04,17.91-7.35,30.45-7.51,52.54.07,24.99,8.57,34.97-8.59,39.77-17.1,1.08-1.91-.76-4.12-2.97-3.54-5.38,1.41-15.15,4.01-27.95-3.28-31.07-17.69-53.76-10-74.51.83-10.38,5.42-21.01,2.28-27.02,1.21Z"/>
      <path class="cls-4" d="M617.36,261.91c-.4,2.25,1.99,3.92,3.78,2.62,10.26-7.49,25-25.79,18.04-42.76-7.35-17.91-7.51-30.45.07-52.54,8.57-24.99-8.59-34.97-17.1-39.77-1.91-1.08-4.12.76-3.54,2.97,1.41,5.38,4.01,15.15-3.28,27.95-17.69,31.07-10,53.76.83,74.51,5.42,10.38,2.28,21.01,1.21,27.02Z"/>
    </g>
    <g>
      <path class="cls-2" d="M363.57,498.99c0,5.08-1.72,10.49-4.75,17.78l-16.63,39.65h-14.75l-20.73-57.43c-1.15-3.28-3.77-3.61-3.77-3.61-1.8,0-2.79-1.31-2.79-2.46,0-1.07.66-1.97,2.05-1.97h20.4c1.88,0,2.95,1.07,3.11,2.13.16,1.15-.66,2.29-2.38,2.21,0,0-4.83.49-3.69,3.6l17.53,46.12,11.3-28.18c2.29-5.65,3.44-11.63,2.87-14.34-.57-2.87-1.72-5.49-5-5.16-2.78.25-1.88,2.7-2.62,3.11-.74.33-4.51-.33-5.57-3.69-1.39-4.51,1.72-10.49,7.78-11.88,1.07-.25,2.21-.33,3.28-.33,6.14,0,12.37,3.6,13.76,9.34.41,1.72.57,3.36.57,5.08Z"/>
      <path class="cls-2" d="M386.51,556.42h-19.58c-1.23,0-1.88-1.07-1.88-2.21,0-1.07.57-2.13,1.88-2.13,0,0,3.28-.33,3.28-3.6v-27.61c0-3.36-2.95-3.36-2.95-3.36-1.56,0-2.29-1.07-2.29-2.21,0-1.07.9-2.21,2.29-2.21l15.98-.08-.08,35.39c0,3.44,3.36,3.6,3.36,3.6,1.39,0,1.97,1.23,1.97,2.38-.08,1.07-.74,2.05-1.97,2.05ZM376.11,508.58c-4.59,0-8.27-2.95-8.27-6.64s3.69-6.64,8.27-6.64,8.19,2.95,8.19,6.64-3.69,6.64-8.19,6.64Z"/>
      <path class="cls-2" d="M414.04,556.42h-19.66c-1.15,0-1.88-1.15-1.88-2.29,0-1.07.65-2.05,1.88-2.05,0,0,3.36-.33,3.36-3.6v-45.47c0-3.36-2.95-3.36-2.95-3.36-1.64-.08-2.29-1.07-2.29-2.13,0-1.15.82-2.29,2.29-2.29l15.89-.08v53.25c0,3.44,3.36,3.6,3.36,3.6,1.39,0,1.97,1.23,1.97,2.38-.08,1.07-.82,2.05-1.97,2.05Z"/>
      <path class="cls-2" d="M442.3,556.42h-19.66c-1.15,0-1.88-1.15-1.88-2.29,0-1.07.65-2.05,1.88-2.05,0,0,3.36-.33,3.36-3.6v-45.47c0-3.36-2.95-3.36-2.95-3.36-1.64-.08-2.29-1.07-2.29-2.13,0-1.15.82-2.29,2.29-2.29l15.89-.08v53.25c0,3.44,3.36,3.6,3.36,3.6,1.39,0,1.97,1.23,1.97,2.38-.08,1.07-.82,2.05-1.97,2.05Z"/>
      <path class="cls-2" d="M489,556.42h-11.8c-2.54,0-3.52-1.07-3.6-2.46l-.9-.08c-3.2,1.56-6.55,3.85-10.24,3.85-6.31,0-13.19-3.77-13.19-10.81,0-9.09,9.58-13.03,16.55-16.38l7.29-3.52c-.16-6.47-3.44-8.11-8.11-8.11-4.92,0-7.46,2.46-7.46,5.16,0,1.07.41,1.97,1.56,1.97.33,0,.66-.25,1.07-.25.25,0,.57.74.57.98,0,2.78-3.44,4.91-6.14,4.91-4.1,0-6.23-3.6-6.23-7.29,0-8.85,10.4-12.29,20.07-12.29,7.62,0,17.69,3.44,17.69,12.53v23.18c0,2.38.98,3.93,3.44,3.93,1.39,0,1.97.9,1.97,1.88,0,1.31-.98,2.79-2.54,2.79ZM472.94,532.17l-9.42,7.05c-1.97,1.47-3.2,3.03-3.2,4.42,0,2.95,2.38,4.26,5,4.26,2.79,0,7.62-2.29,7.62-2.29v-13.44Z"/>
      <path class="cls-2" d="M540.04,511.44c0,2.21-1.64,3.93-3.44,3.93-.49,0-.98-.16-1.48-.16-1.31,0-3.03,1.07-4.1,1.97,3.44,2.95,5.65,6.96,5.65,11.3,0,9.26-9.5,16.79-21.3,16.79-5.08,0-9.67-1.39-13.27-3.69-.65.9-1.15,1.88-1.15,2.62,0,7.95,36.95-2.62,36.95,16.96,0,6.31-10.08,15.73-23.76,15.73-7.86,0-21.14-.98-21.14-9.67,0-3.52,2.46-7.45,7.21-7.45,3.93,0,5.49,2.95,5.49,4.26,0,1.23-2.95.74-2.95,2.7,0,1.56,2.21,3.03,9.99,3.03,4.01,0,12.62-.82,12.62-6.39,0-6.06-17.61-3.69-24.66-5.98-4.75-1.56-7.7-4.75-7.7-9.5s3.52-8.36,5-9.83c-2.21-2.7-3.52-5.98-3.52-9.59,0-9.26,9.26-16.63,20.89-16.63,4.26,0,8.27.98,11.55,2.62,2.05-3.85,5.73-6.64,9.42-6.64,1.56,0,2.87.65,3.44,2.05.16.57.25,1.07.25,1.56ZM515.46,519.47c-4.83,0-7.54,3.2-7.54,9.75,0,5.73,3.11,9.01,7.62,9.01,4.75,0,8.03-3.28,8.03-9.5s-2.78-9.26-8.11-9.26Z"/>
      <path class="cls-2" d="M584.86,541.02c0,6.14-5.16,16.63-20.4,16.63-11.96,0-21.14-9.91-21.14-22.94s9.34-22.86,21.14-22.86,17.2,7.29,18.51,16.38l-25.89,11.47c.57,7.37,4.42,10.98,10.08,10.98,4.59,0,8.44-3.03,8.44-6.31,0-.9-.65-1.88-1.64-1.88-.57,0-.98.49-1.48.49-.57,0-1.07-.49-1.07-1.72,0-2.87,2.46-6.8,6.88-6.8,2.13,0,4.34.9,5.57,2.87.65,1.07.98,2.29.98,3.69ZM571.75,524.55c-.9-4.18-4.01-5.73-6.31-5.73-4.18,0-8.36,3.93-8.6,12.37l14.91-6.64Z"/>
      <path class="cls-2" d="M703.4,556.42h-22.2c-1.8,0-2.87-.98-3.11-1.97-.25-1.15.49-2.46,2.38-2.38,0,0,4.18-.33,3.6-3.6l-6.64-39.32-16.96,47.27h-7.46l-15.48-46.45-8.6,38.42c-.82,3.44,4.1,3.6,4.1,3.6,1.39,0,2.13,1.07,2.05,2.13-.08,1.15-1.07,2.29-3.03,2.29h-17.61c-1.23,0-1.88-.82-1.88-1.72-.08-1.23.9-2.7,2.87-2.62,0,0,4.34-.33,5.08-3.6,13.27-59.15,11.31-49.81,11.22-49.89.57-2.78-3.52-3.28-3.52-3.28-2.13-.08-3.03-1.39-2.95-2.54.08-.98.9-1.88,2.21-1.88h17.53l15.16,46.61,16.79-46.61h15.07c1.64,0,2.54.98,2.7,2.05.16,1.15-.57,2.38-1.97,2.38,0,0-4.67-.33-4.01,3.69l8.27,49.4c.66,3.44,5.65,3.6,5.65,3.6,1.39,0,2.38,1.15,2.54,2.21.25,1.15-.33,2.21-1.8,2.21Z"/>
      <path class="cls-2" d="M748.38,556.42h-11.8c-2.54,0-3.52-1.07-3.6-2.46l-.9-.08c-3.2,1.56-6.55,3.85-10.24,3.85-6.31,0-13.19-3.77-13.19-10.81,0-9.09,9.58-13.03,16.55-16.38l7.29-3.52c-.16-6.47-3.44-8.11-8.11-8.11-4.92,0-7.46,2.46-7.46,5.16,0,1.07.41,1.97,1.56,1.97.33,0,.66-.25,1.07-.25.25,0,.57.74.57.98,0,2.78-3.44,4.91-6.14,4.91-4.1,0-6.23-3.6-6.23-7.29,0-8.85,10.4-12.29,20.07-12.29,7.62,0,17.69,3.44,17.69,12.53v23.18c0,2.38.98,3.93,3.44,3.93,1.39,0,1.97.9,1.97,1.88,0,1.31-.98,2.79-2.54,2.79ZM732.33,532.17l-9.42,7.05c-1.97,1.47-3.2,3.03-3.2,4.42,0,2.95,2.38,4.26,5,4.26,2.79,0,7.62-2.29,7.62-2.29v-13.44Z"/>
      <path class="cls-2" d="M787.05,532.09c-4.18,0-6.31-3.44-6.31-5.16s.74-3.6,2.13-4.34c.16-.08.16-.16.16-.33,0-.82-2.38-2.79-5.82-2.79-1.64,0-3.52.49-5.49,1.64l-.16.08-.08,27.2c0,3.44,3.36,3.6,3.36,3.6,1.39,0,1.97,1.15,1.97,2.29,0,1.07-.74,2.13-1.97,2.13h-19.58c-1.15,0-1.88-.98-1.88-2.13s.57-2.21,1.88-2.21c0,0,3.28-.33,3.28-3.6v-27.61c0-3.36-2.95-3.36-2.95-3.36-1.64,0-2.29-1.23-2.29-2.29,0-1.15.98-2.13,2.29-2.13l15.97-.08v2.05c2.38-1.47,5.49-2.7,9.26-2.7,10.57,0,13.68,5.9,13.68,10.49,0,5.16-2.78,9.26-7.45,9.26Z"/>
      <path class="cls-2" d="M848.58,556.42h-20.48c-1.56,0-2.62-1.07-2.62-2.29,0-3.2,5-.98,5-4.01,0-.57-.41-1.39-1.31-2.54l-10.4-12.04-2.21,1.64v11.22c0,3.44,3.36,3.6,3.36,3.6,1.39,0,1.97,1.23,1.97,2.38,0,1.07-.82,2.05-1.97,2.05h-19.58c-1.39,0-1.88-1.15-1.88-2.38,0-1.07.65-1.97,1.88-1.97,0,0,3.28-.33,3.28-3.6v-45.47c0-5.82-5.24-1.56-5.24-5.65,0-1.07.98-2.05,2.29-2.05h15.89v34.49l12.53-9.42c.98-.74,1.31-1.39,1.31-1.8,0-1.97-3.85-.57-3.85-3.2,0-1.15.74-2.38,2.05-2.38h17.45c1.8,0,2.38,1.15,2.38,2.21,0,1.15-1.23,2.21-2.54,2.21h-.25c-.66-.08-2.54.33-6.06,2.87l-13.03,9.59,16.79,18.76c2.62,2.95,4.18,3.36,4.83,3.36.25,0,.41-.08.41-.08,1.64.08,2.46,1.07,2.46,2.05,0,1.23-.74,2.46-2.46,2.46Z"/>
      <path class="cls-2" d="M891.1,541.02c0,6.14-5.16,16.63-20.4,16.63-11.96,0-21.14-9.91-21.14-22.94s9.34-22.86,21.14-22.86,17.2,7.29,18.51,16.38l-25.89,11.47c.57,7.37,4.42,10.98,10.08,10.98,4.59,0,8.44-3.03,8.44-6.31,0-.9-.65-1.88-1.64-1.88-.57,0-.98.49-1.48.49-.57,0-1.07-.49-1.07-1.72,0-2.87,2.46-6.8,6.88-6.8,2.13,0,4.34.9,5.57,2.87.65,1.07.98,2.29.98,3.69ZM877.99,524.55c-.9-4.18-4.01-5.73-6.31-5.73-4.18,0-8.36,3.93-8.6,12.37l14.91-6.64Z"/>
      <path class="cls-2" d="M920.6,552.98c-3.44,2.78-6.8,4.67-11.96,4.67-3.6,0-10.24-2.13-10.24-9.59v-27.69h-1.72c-2.29,0-3.52-1.47-3.52-3.2,0-1.56,1.07-3.28,3.52-4.18,5.9-2.13,8.36-7.62,8.36-12.7,0-1.64,1.47-2.38,2.95-2.38,1.64,0,3.28.9,3.28,2.38v12.7h6.39c2.54,0,3.69,1.72,3.69,3.52s-1.31,3.85-3.69,3.85h-6.39v27.93c0,2.13,2.05,3.36,3.11,3.36,2.13-.25,4.01-1.97,4.01-1.97l2.21,3.28Z"/>
      <path class="cls-4" d="M535.45,614.04c-3.17.15-4.87.85-5.49,4.79-.7,3.94-2.16,7.5-4.41,10.43,1.47,3.4,2.63,5.57,5.64,5.57,1.85,0,3.17-.23,4.25-.54v2.94c-1.47.93-4.33,1.62-6.96,1.62-4.33,0-7.5-1.24-9.66-3.48-3.79,2.24-8.27,3.48-13.22,3.48-7.96,0-13.06-4.33-13.06-10.67,0-7.03,5.41-10.67,10.98-13.45-3.01-2.55-4.56-4.95-4.56-8.5,0-4.41,3.94-8.97,11.05-8.97,6.57,0,9.89,3.48,9.89,8.04,0,4.02-2.94,6.34-6.26,8.43,3.86,2.55,7.5,6.18,10.36,11.98,1.31-2.32,2.09-4.87,2.09-7.42,0-3.63-1.78-4.1-4.95-4.25v-2.55h14.3v2.55ZM516.75,632.44c-4.41-8.42-6.8-12.13-9.35-14.53-2.24,1.93-3.94,4.33-3.94,7.88,0,5.18,2.78,8.04,7.5,8.04,2.01,0,4.02-.46,5.8-1.39ZM510.1,611.57c3.32-1.7,5.8-3.56,5.8-6.26s-1.78-4.56-5.02-4.56c-2.7,0-5.18,1.62-5.18,4.79,0,2.55,1.55,4.25,4.41,6.03Z"/>
      <path class="cls-4" d="M559.64,638v-2.63c5.56-.39,6.8-.85,6.8-6.03v-36.79c0-5.18-.93-5.72-6.8-6.11v-2.55h26.74c14.45,0,23.65,3.4,23.65,13.99s-9.2,14.3-23.81,14.3h-9.12v17.16c0,5.18,1.24,5.64,6.8,6.03v2.63h-24.27ZM579.43,588.23c-1.39,0-2.32.93-2.32,2.32v17.24h9.12c7.81,0,12.21-2.7,12.21-9.89s-4.41-9.66-12.06-9.66h-6.96Z"/>
      <path class="cls-4" d="M614.36,638v-2.63c3.86-.39,4.72-1.16,4.72-3.63v-19.17c0-1.78-.62-2.4-2.16-2.4h-2.55v-2.32l10.74-6.26h3.32v30.14c0,2.47.93,3.25,4.79,3.63v2.63h-18.86ZM629.66,589.77c0,2.71-2.16,5.33-5.72,5.33s-5.64-2.63-5.64-5.33,2.09-5.49,5.64-5.49,5.72,2.71,5.72,5.49Z"/>
      <path class="cls-4" d="M657.72,606.54h-4.02c-6.26,0-10.05,1.93-13.22,7.42l-2.4-.85,3.01-10.36h28.68v2.55l-20.25,28.83h5.56c7.65,0,11.52-4.02,14.92-9.04l2.24,1.08-5.02,11.83h-29.84v-2.63l20.33-28.83Z"/>
      <path class="cls-4" d="M695.98,606.54h-4.02c-6.26,0-10.05,1.93-13.22,7.42l-2.4-.85,3.01-10.36h28.68v2.55l-20.25,28.83h5.56c7.65,0,11.52-4.02,14.92-9.04l2.24,1.08-5.02,11.83h-29.84v-2.63l20.33-28.83Z"/>
      <path class="cls-4" d="M724.96,639.01c-6.34,0-10.43-3.25-10.43-8.58,0-8.73,10.74-11.75,22.88-13.84v-4.1c0-5.26-1-7.11-4.79-7.11s-5.87,1.62-6.96,5.41c-.85,2.86-2.71,4.17-4.95,4.17s-3.71-1.39-3.71-4.17c0-5.1,6.57-9.2,16.39-9.2,7.19,0,13.37,2.63,13.37,11.28v18.01c0,2.4.77,3.56,2.32,3.56.7,0,1.55-.23,2.55-.77v3.4c-1.86,1.24-3.94,1.85-6.96,1.85-3.63,0-6.34-1.31-7.11-4.87-3.4,2.47-7.81,4.95-12.6,4.95ZM737.4,620.38c-7.88,1.31-13.06,3.25-13.06,8.35,0,3.32,2.16,4.71,4.87,4.71,2.94,0,5.64-1.31,8.19-3.09v-9.97Z"/>
    </g>
  </g>
</svg>